<svg width="80" height="80" viewBox="0 0 80 80" fill="none" xmlns="http://www.w3.org/2000/svg">
<rect width="80" height="80" fill="white"/>
<path d="M8.27972 40H6.53655V35.0826H8.29412C8.78874 35.0826 9.21453 35.1811 9.57148 35.378C9.92844 35.5733 10.203 35.8542 10.395 36.2207C10.5887 36.5873 10.6856 37.0259 10.6856 37.5365C10.6856 38.0487 10.5887 38.4889 10.395 38.8571C10.203 39.2253 9.92684 39.5078 9.56668 39.7047C9.20812 39.9016 8.77914 40 8.27972 40ZM7.57621 39.1092H8.2365C8.54383 39.1092 8.80235 39.0548 9.01204 38.9459C9.22333 38.8355 9.3818 38.665 9.48745 38.4345C9.59469 38.2024 9.64832 37.9031 9.64832 37.5365C9.64832 37.1732 9.59469 36.8762 9.48745 36.6457C9.3818 36.4152 9.22413 36.2456 9.01444 36.1367C8.80475 36.0279 8.54623 35.9734 8.2389 35.9734H7.57621V39.1092ZM13.1028 40.072C12.7299 40.072 12.4073 39.9928 12.1352 39.8343C11.8647 39.6743 11.6558 39.4518 11.5085 39.1668C11.3613 38.8803 11.2876 38.5482 11.2876 38.1704C11.2876 37.7894 11.3613 37.4565 11.5085 37.1716C11.6558 36.885 11.8647 36.6625 12.1352 36.5041C12.4073 36.344 12.7299 36.264 13.1028 36.264C13.4758 36.264 13.7975 36.344 14.0681 36.5041C14.3402 36.6625 14.5499 36.885 14.6971 37.1716C14.8444 37.4565 14.918 37.7894 14.918 38.1704C14.918 38.5482 14.8444 38.8803 14.6971 39.1668C14.5499 39.4518 14.3402 39.6743 14.0681 39.8343C13.7975 39.9928 13.4758 40.072 13.1028 40.072ZM13.1076 39.2797C13.2773 39.2797 13.419 39.2317 13.5326 39.1356C13.6463 39.038 13.7319 38.9051 13.7895 38.737C13.8488 38.569 13.8784 38.3777 13.8784 38.1632C13.8784 37.9487 13.8488 37.7574 13.7895 37.5893C13.7319 37.4213 13.6463 37.2884 13.5326 37.1908C13.419 37.0931 13.2773 37.0443 13.1076 37.0443C12.9364 37.0443 12.7923 37.0931 12.6754 37.1908C12.5602 37.2884 12.473 37.4213 12.4137 37.5893C12.3561 37.7574 12.3273 37.9487 12.3273 38.1632C12.3273 38.3777 12.3561 38.569 12.4137 38.737C12.473 38.9051 12.5602 39.038 12.6754 39.1356C12.7923 39.2317 12.9364 39.2797 13.1076 39.2797ZM17.9482 38.4297V36.312H18.971V40H17.989V39.3301H17.9506C17.8673 39.5462 17.7289 39.7199 17.5352 39.8511C17.3431 39.9824 17.1086 40.048 16.8317 40.048C16.5852 40.048 16.3683 39.992 16.181 39.8799C15.9937 39.7679 15.8472 39.6086 15.7416 39.4021C15.6375 39.1956 15.5847 38.9483 15.5831 38.6602V36.312H16.606V38.4777C16.6076 38.6954 16.666 38.8675 16.7812 38.994C16.8965 39.1204 17.051 39.1836 17.2446 39.1836C17.3679 39.1836 17.4832 39.1556 17.5904 39.0996C17.6976 39.042 17.7841 38.9571 17.8497 38.8451C17.9169 38.733 17.9498 38.5946 17.9482 38.4297ZM19.8084 40V35.0826H20.8312V36.9315H20.8624C20.9073 36.8322 20.9721 36.7314 21.0569 36.6289C21.1434 36.5249 21.2554 36.4384 21.3931 36.3696C21.5323 36.2992 21.7052 36.264 21.9117 36.264C22.1806 36.264 22.4287 36.3344 22.656 36.4753C22.8833 36.6145 23.065 36.825 23.2011 37.1067C23.3371 37.3869 23.4051 37.7382 23.4051 38.1608C23.4051 38.5722 23.3387 38.9195 23.2059 39.2029C23.0746 39.4846 22.8953 39.6983 22.668 39.8439C22.4423 39.988 22.1894 40.06 21.9093 40.06C21.7108 40.06 21.5419 40.0272 21.4027 39.9616C21.265 39.896 21.1522 39.8135 21.0641 39.7143C20.9761 39.6134 20.9089 39.5118 20.8624 39.4093H20.8168V40H19.8084ZM20.8096 38.156C20.8096 38.3753 20.84 38.5666 20.9008 38.7298C20.9617 38.8931 21.0497 39.0204 21.165 39.1116C21.2802 39.2012 21.4203 39.2461 21.5851 39.2461C21.7516 39.2461 21.8925 39.2004 22.0077 39.1092C22.123 39.0164 22.2102 38.8883 22.2694 38.725C22.3303 38.5602 22.3607 38.3705 22.3607 38.156C22.3607 37.9431 22.3311 37.7558 22.2718 37.5941C22.2126 37.4325 22.1254 37.306 22.0101 37.2148C21.8949 37.1235 21.7532 37.0779 21.5851 37.0779C21.4187 37.0779 21.2778 37.1219 21.1626 37.21C21.0489 37.298 20.9617 37.4229 20.9008 37.5845C20.84 37.7462 20.8096 37.9367 20.8096 38.156ZM25.1105 35.0826V40H24.0876V35.0826H25.1105ZM27.6106 40.072C27.2312 40.072 26.9047 39.9952 26.631 39.8415C26.3588 39.6863 26.1491 39.467 26.0019 39.1836C25.8546 38.8987 25.781 38.5618 25.781 38.1728C25.781 37.7934 25.8546 37.4605 26.0019 37.174C26.1491 36.8874 26.3564 36.6641 26.6238 36.5041C26.8927 36.344 27.208 36.264 27.5698 36.264C27.8131 36.264 28.0396 36.3032 28.2493 36.3816C28.4606 36.4584 28.6446 36.5745 28.8015 36.7298C28.96 36.885 29.0832 37.0803 29.1713 37.3156C29.2593 37.5493 29.3033 37.823 29.3033 38.1368V38.4177H26.1892V37.7838H28.3405C28.3405 37.6366 28.3085 37.5061 28.2445 37.3925C28.1804 37.2788 28.0916 37.19 27.9779 37.1259C27.8659 37.0603 27.7354 37.0275 27.5866 37.0275C27.4313 37.0275 27.2936 37.0635 27.1736 37.1355C27.0551 37.206 26.9623 37.3012 26.8951 37.4213C26.8278 37.5397 26.7934 37.6718 26.7918 37.8174V38.4201C26.7918 38.6026 26.8254 38.7603 26.8927 38.8931C26.9615 39.026 27.0583 39.1284 27.1832 39.2004C27.3081 39.2725 27.4561 39.3085 27.6274 39.3085C27.741 39.3085 27.8451 39.2925 27.9395 39.2605C28.034 39.2285 28.1148 39.1804 28.182 39.1164C28.2493 39.0524 28.3005 38.974 28.3357 38.8811L29.2817 38.9435C29.2337 39.1708 29.1353 39.3693 28.9864 39.539C28.8391 39.7071 28.6486 39.8383 28.4149 39.9328C28.1828 40.0256 27.9147 40.072 27.6106 40.072ZM34.3287 36.8042H33.2771C33.2579 36.6681 33.2186 36.5473 33.1594 36.4416C33.1002 36.3344 33.0242 36.2432 32.9313 36.1679C32.8385 36.0927 32.7312 36.0351 32.6096 35.995C32.4895 35.955 32.3591 35.935 32.2182 35.935C31.9637 35.935 31.742 35.9982 31.5531 36.1247C31.3642 36.2496 31.2178 36.432 31.1137 36.6721C31.0097 36.9106 30.9577 37.2004 30.9577 37.5413C30.9577 37.8919 31.0097 38.1864 31.1137 38.4249C31.2194 38.6634 31.3666 38.8435 31.5555 38.9651C31.7444 39.0868 31.9629 39.1476 32.211 39.1476C32.3503 39.1476 32.4791 39.1292 32.5976 39.0924C32.7176 39.0556 32.8241 39.002 32.9169 38.9315C33.0098 38.8595 33.0866 38.7723 33.1474 38.6698C33.2098 38.5674 33.2531 38.4505 33.2771 38.3193L34.3287 38.3241C34.3015 38.5498 34.2335 38.7675 34.1246 38.9772C34.0174 39.1852 33.8725 39.3717 33.6901 39.5366C33.5092 39.6999 33.2931 39.8295 33.0418 39.9256C32.7921 40.02 32.5095 40.0672 32.1942 40.0672C31.7556 40.0672 31.3634 39.968 31.0177 39.7695C30.6735 39.571 30.4014 39.2837 30.2013 38.9075C30.0028 38.5314 29.9036 38.076 29.9036 37.5413C29.9036 37.0051 30.0044 36.5489 30.2061 36.1727C30.4078 35.7966 30.6815 35.51 31.0273 35.3131C31.373 35.1147 31.762 35.0154 32.1942 35.0154C32.4791 35.0154 32.7432 35.0554 32.9865 35.1355C33.2315 35.2155 33.4483 35.3324 33.6372 35.486C33.8261 35.6381 33.9798 35.8246 34.0982 36.0455C34.2183 36.2664 34.2951 36.5193 34.3287 36.8042ZM36.0779 35.0826V40H35.0551V35.0826H36.0779ZM36.8973 40V36.312H37.9201V40H36.8973ZM37.4111 35.8366C37.259 35.8366 37.1286 35.7862 37.0197 35.6853C36.9125 35.5829 36.8588 35.4604 36.8588 35.3179C36.8588 35.1771 36.9125 35.0562 37.0197 34.9554C37.1286 34.8529 37.259 34.8017 37.4111 34.8017C37.5632 34.8017 37.6928 34.8529 37.8001 34.9554C37.9089 35.0562 37.9633 35.1771 37.9633 35.3179C37.9633 35.4604 37.9089 35.5829 37.8001 35.6853C37.6928 35.7862 37.5632 35.8366 37.4111 35.8366ZM40.4058 40.072C40.028 40.072 39.7031 39.992 39.431 39.8319C39.1605 39.6703 38.9524 39.4462 38.8067 39.1596C38.6626 38.8731 38.5906 38.5434 38.5906 38.1704C38.5906 37.7926 38.6634 37.4613 38.8091 37.1764C38.9564 36.8898 39.1653 36.6665 39.4358 36.5065C39.7063 36.3448 40.028 36.264 40.401 36.264C40.7227 36.264 41.0045 36.3224 41.2462 36.4392C41.4879 36.5561 41.6792 36.7202 41.82 36.9315C41.9609 37.1427 42.0385 37.3909 42.0529 37.6758H41.0877C41.0605 37.4917 40.9885 37.3436 40.8716 37.2316C40.7564 37.1179 40.6051 37.0611 40.4178 37.0611C40.2593 37.0611 40.1209 37.1043 40.0024 37.1908C39.8856 37.2756 39.7943 37.3997 39.7287 37.5629C39.6631 37.7262 39.6303 37.9239 39.6303 38.156C39.6303 38.3913 39.6623 38.5914 39.7263 38.7563C39.7919 38.9211 39.884 39.0468 40.0024 39.1332C40.1209 39.2197 40.2593 39.2629 40.4178 39.2629C40.5347 39.2629 40.6395 39.2389 40.7323 39.1908C40.8268 39.1428 40.9044 39.0732 40.9652 38.982C41.0277 38.8891 41.0685 38.7779 41.0877 38.6482H42.0529C42.0369 38.9299 41.9601 39.178 41.8224 39.3925C41.6864 39.6054 41.4983 39.7719 41.2582 39.892C41.0181 40.012 40.7339 40.072 40.4058 40.072ZM43.6346 38.9387L43.637 37.7118H43.7859L44.9672 36.312H46.1413L44.5542 38.1656H44.3117L43.6346 38.9387ZM42.7078 40V35.0826H43.7307V40H42.7078ZM45.0128 40L43.9275 38.3937L44.6094 37.671L46.2109 40H45.0128ZM46.0921 35.9398V35.0826H50.1307V35.9398H48.6252V40H47.5976V35.9398H46.0921ZM51.908 40.072C51.5351 40.072 51.2125 39.9928 50.9404 39.8343C50.6699 39.6743 50.461 39.4518 50.3137 39.1668C50.1665 38.8803 50.0928 38.5482 50.0928 38.1704C50.0928 37.7894 50.1665 37.4565 50.3137 37.1716C50.461 36.885 50.6699 36.6625 50.9404 36.5041C51.2125 36.344 51.5351 36.264 51.908 36.264C52.281 36.264 52.6027 36.344 52.8733 36.5041C53.1454 36.6625 53.3551 36.885 53.5023 37.1716C53.6496 37.4565 53.7232 37.7894 53.7232 38.1704C53.7232 38.5482 53.6496 38.8803 53.5023 39.1668C53.3551 39.4518 53.1454 39.6743 52.8733 39.8343C52.6027 39.9928 52.281 40.072 51.908 40.072ZM51.9128 39.2797C52.0825 39.2797 52.2242 39.2317 52.3378 39.1356C52.4515 39.038 52.5371 38.9051 52.5947 38.737C52.654 38.569 52.6836 38.3777 52.6836 38.1632C52.6836 37.9487 52.654 37.7574 52.5947 37.5893C52.5371 37.4213 52.4515 37.2884 52.3378 37.1908C52.2242 37.0931 52.0825 37.0443 51.9128 37.0443C51.7416 37.0443 51.5975 37.0931 51.4807 37.1908C51.3654 37.2884 51.2782 37.4213 51.2189 37.5893C51.1613 37.7574 51.1325 37.9487 51.1325 38.1632C51.1325 38.3777 51.1613 38.569 51.2189 38.737C51.2782 38.9051 51.3654 39.038 51.4807 39.1356C51.5975 39.2317 51.7416 39.2797 51.9128 39.2797ZM58.7462 36.8042H57.6946C57.6754 36.6681 57.6362 36.5473 57.5769 36.4416C57.5177 36.3344 57.4417 36.2432 57.3488 36.1679C57.256 36.0927 57.1487 36.0351 57.0271 35.995C56.907 35.955 56.7766 35.935 56.6357 35.935C56.3812 35.935 56.1595 35.9982 55.9706 36.1247C55.7817 36.2496 55.6353 36.432 55.5312 36.6721C55.4272 36.9106 55.3752 37.2004 55.3752 37.5413C55.3752 37.8919 55.4272 38.1864 55.5312 38.4249C55.6369 38.6634 55.7841 38.8435 55.973 38.9651C56.1619 39.0868 56.3804 39.1476 56.6285 39.1476C56.7678 39.1476 56.8966 39.1292 57.0151 39.0924C57.1351 39.0556 57.2416 39.002 57.3344 38.9315C57.4273 38.8595 57.5041 38.7723 57.5649 38.6698C57.6273 38.5674 57.6706 38.4505 57.6946 38.3193L58.7462 38.3241C58.719 38.5498 58.651 38.7675 58.5421 38.9772C58.4349 39.1852 58.29 39.3717 58.1076 39.5366C57.9267 39.6999 57.7106 39.8295 57.4593 39.9256C57.2096 40.02 56.927 40.0672 56.6117 40.0672C56.1731 40.0672 55.7809 39.968 55.4352 39.7695C55.091 39.571 54.8189 39.2837 54.6188 38.9075C54.4203 38.5314 54.3211 38.076 54.3211 37.5413C54.3211 37.0051 54.4219 36.5489 54.6236 36.1727C54.8253 35.7966 55.099 35.51 55.4448 35.3131C55.7905 35.1147 56.1795 35.0154 56.6117 35.0154C56.8966 35.0154 57.1607 35.0554 57.404 35.1355C57.649 35.2155 57.8659 35.3324 58.0547 35.486C58.2436 35.6381 58.3973 35.8246 58.5157 36.0455C58.6358 36.2664 58.7126 36.5193 58.7462 36.8042ZM60.4954 35.0826V40H59.4726V35.0826H60.4954ZM62.9811 40.072C62.6081 40.072 62.2856 39.9928 62.0135 39.8343C61.7429 39.6743 61.5341 39.4518 61.3868 39.1668C61.2395 38.8803 61.1659 38.5482 61.1659 38.1704C61.1659 37.7894 61.2395 37.4565 61.3868 37.1716C61.5341 36.885 61.7429 36.6625 62.0135 36.5041C62.2856 36.344 62.6081 36.264 62.9811 36.264C63.3541 36.264 63.6758 36.344 63.9463 36.5041C64.2184 36.6625 64.4281 36.885 64.5754 37.1716C64.7227 37.4565 64.7963 37.7894 64.7963 38.1704C64.7963 38.5482 64.7227 38.8803 64.5754 39.1668C64.4281 39.4518 64.2184 39.6743 63.9463 39.8343C63.6758 39.9928 63.3541 40.072 62.9811 40.072ZM62.9859 39.2797C63.1556 39.2797 63.2972 39.2317 63.4109 39.1356C63.5245 39.038 63.6102 38.9051 63.6678 38.737C63.727 38.569 63.7566 38.3777 63.7566 38.1632C63.7566 37.9487 63.727 37.7574 63.6678 37.5893C63.6102 37.4213 63.5245 37.2884 63.4109 37.1908C63.2972 37.0931 63.1556 37.0443 62.9859 37.0443C62.8146 37.0443 62.6706 37.0931 62.5537 37.1908C62.4385 37.2884 62.3512 37.4213 62.292 37.5893C62.2344 37.7574 62.2056 37.9487 62.2056 38.1632C62.2056 38.3777 62.2344 38.569 62.292 38.737C62.3512 38.9051 62.4385 39.038 62.5537 39.1356C62.6706 39.2317 62.8146 39.2797 62.9859 39.2797ZM68.5299 37.3636L67.5935 37.4213C67.5775 37.3412 67.5431 37.2692 67.4903 37.2052C67.4374 37.1395 67.3678 37.0875 67.2814 37.0491C67.1965 37.0091 67.0949 36.9891 66.9764 36.9891C66.818 36.9891 66.6843 37.0227 66.5755 37.0899C66.4666 37.1556 66.4122 37.2436 66.4122 37.354C66.4122 37.4421 66.4474 37.5165 66.5178 37.5773C66.5883 37.6382 66.7091 37.687 66.8804 37.7238L67.5479 37.8583C67.9065 37.9319 68.1738 38.0503 68.3498 38.2136C68.5259 38.3769 68.614 38.5914 68.614 38.8571C68.614 39.0988 68.5427 39.3109 68.4003 39.4934C68.2594 39.6759 68.0657 39.8183 67.8192 39.9208C67.5743 40.0216 67.2918 40.072 66.9716 40.072C66.4834 40.072 66.0945 39.9704 65.8047 39.7671C65.5166 39.5622 65.3477 39.2837 65.2981 38.9315L66.3041 38.8787C66.3346 39.0276 66.4082 39.1412 66.525 39.2197C66.6419 39.2965 66.7916 39.3349 66.974 39.3349C67.1533 39.3349 67.2974 39.3005 67.4062 39.2317C67.5167 39.1612 67.5727 39.0708 67.5743 38.9603C67.5727 38.8675 67.5335 38.7915 67.4567 38.7322C67.3798 38.6714 67.2614 38.625 67.1013 38.593L66.4626 38.4657C66.1025 38.3937 65.8343 38.2688 65.6583 38.0912C65.4838 37.9135 65.3966 37.687 65.3966 37.4117C65.3966 37.1748 65.4606 36.9707 65.5886 36.7994C65.7183 36.6281 65.9 36.4961 66.1337 36.4032C66.369 36.3104 66.6443 36.264 66.9596 36.264C67.4254 36.264 67.792 36.3624 68.0593 36.5593C68.3282 36.7562 68.4851 37.0243 68.5299 37.3636ZM70.9388 40.072C70.5594 40.072 70.2329 39.9952 69.9592 39.8415C69.687 39.6863 69.4773 39.467 69.3301 39.1836C69.1828 38.8987 69.1092 38.5618 69.1092 38.1728C69.1092 37.7934 69.1828 37.4605 69.3301 37.174C69.4773 36.8874 69.6846 36.6641 69.9519 36.5041C70.2209 36.344 70.5362 36.264 70.898 36.264C71.1413 36.264 71.3678 36.3032 71.5775 36.3816C71.7888 36.4584 71.9728 36.5745 72.1297 36.7298C72.2882 36.885 72.4114 37.0803 72.4995 37.3156C72.5875 37.5493 72.6315 37.823 72.6315 38.1368V38.4177H69.5174V37.7838H71.6687C71.6687 37.6366 71.6367 37.5061 71.5727 37.3925C71.5086 37.2788 71.4198 37.19 71.3061 37.1259C71.1941 37.0603 71.0636 37.0275 70.9148 37.0275C70.7595 37.0275 70.6218 37.0635 70.5018 37.1355C70.3833 37.206 70.2905 37.3012 70.2233 37.4213C70.156 37.5397 70.1216 37.6718 70.12 37.8174V38.4201C70.12 38.6026 70.1536 38.7603 70.2209 38.8931C70.2897 39.026 70.3865 39.1284 70.5114 39.2004C70.6362 39.2725 70.7843 39.3085 70.9556 39.3085C71.0692 39.3085 71.1733 39.2925 71.2677 39.2605C71.3622 39.2285 71.443 39.1804 71.5102 39.1164C71.5775 39.0524 71.6287 38.974 71.6639 38.8811L72.6099 38.9435C72.5619 39.1708 72.4634 39.3693 72.3146 39.539C72.1673 39.7071 71.9768 39.8383 71.7431 39.9328C71.511 40.0256 71.2429 40.072 70.9388 40.072ZM33.0184 43.9398V43.0826H37.0569V43.9398H35.5515V48H34.5238V43.9398H33.0184ZM37.9687 48H36.8546L38.5522 43.0826H39.892L41.5871 48H40.473L39.2413 44.2063H39.2029L37.9687 48ZM37.8991 46.0672H40.5307V46.8787H37.8991V46.0672ZM42.179 48V43.0826H44.1478C44.5096 43.0826 44.8113 43.1363 45.053 43.2435C45.2947 43.3508 45.4764 43.4996 45.5981 43.6901C45.7197 43.879 45.7806 44.0967 45.7806 44.3432C45.7806 44.5353 45.7421 44.7042 45.6653 44.8498C45.5885 44.9939 45.4828 45.1123 45.3484 45.2052C45.2155 45.2964 45.0634 45.3612 44.8922 45.3997V45.4477C45.0794 45.4557 45.2547 45.5085 45.418 45.6062C45.5829 45.7038 45.7165 45.8407 45.819 46.0167C45.9214 46.1912 45.9726 46.3993 45.9726 46.641C45.9726 46.9019 45.9078 47.1348 45.7782 47.3397C45.6501 47.543 45.4604 47.7039 45.2091 47.8223C44.9578 47.9408 44.6481 48 44.2799 48H42.179ZM43.2186 47.15H44.0662C44.3559 47.15 44.5672 47.0948 44.7001 46.9844C44.8329 46.8723 44.8994 46.7234 44.8994 46.5378C44.8994 46.4017 44.8666 46.2816 44.8009 46.1776C44.7353 46.0736 44.6417 45.9919 44.52 45.9327C44.3999 45.8735 44.2567 45.8439 44.0902 45.8439H43.2186V47.15ZM43.2186 45.1403H43.9894C44.1318 45.1403 44.2583 45.1155 44.3687 45.0659C44.4808 45.0147 44.5688 44.9427 44.6328 44.8498C44.6985 44.757 44.7313 44.6457 44.7313 44.5161C44.7313 44.3384 44.6681 44.1951 44.5416 44.0863C44.4168 43.9774 44.2391 43.923 44.0086 43.923H43.2186V45.1403Z" fill="#FF0000"/>
</svg>
